<?xml version="1.0" standalone="no"?><!DOCTYPE svg PUBLIC "-//W3C//DTD SVG 1.1//EN" "http://www.w3.org/Graphics/SVG/1.1/DTD/svg11.dtd"><svg t="1658247682326" class="icon" viewBox="0 0 1024 1024" version="1.1" xmlns="http://www.w3.org/2000/svg" p-id="2590" xmlns:xlink="http://www.w3.org/1999/xlink" width="200" height="200"><defs><style type="text/css">@font-face { font-family: feedback-iconfont; src: url("//at.alicdn.com/t/font_1031158_u69w8yhxdu.woff2?t=1630033759944") format("woff2"), url("//at.alicdn.com/t/font_1031158_u69w8yhxdu.woff?t=1630033759944") format("woff"), url("//at.alicdn.com/t/font_1031158_u69w8yhxdu.ttf?t=1630033759944") format("truetype"); }
</style></defs><path d="M0 0h1024v1024H0z" fill="#FFFFFF" p-id="2591"></path><path d="M532.693333 896a42.666667 42.666667 0 0 1-30.08-12.416L140.373333 521.386667a42.666667 42.666667 0 0 1 0-60.117334l308.053334-308.096A86.058667 86.058667 0 0 1 509.013333 128h339.2a44.672 44.672 0 0 1 30.293334 12.373333l5.162666 5.162667a44.458667 44.458667 0 0 1 12.288 30.250667v339.2a86.058667 86.058667 0 0 1-25.173333 60.586666l-308.053333 308.053334a42.368 42.368 0 0 1-30.037334 12.373333z m149.930667-640a85.333333 85.333333 0 1 0 85.333333 85.333333 85.333333 85.333333 0 0 0-85.333333-85.333333z" p-id="2592"></path></svg>